<?xml version="1.0" encoding="UTF-8" standalone="no"?>
<svg width="800" height="400" xmlns="http://www.w3.org/2000/svg">
  <!-- Styles -->
  <style>
    .component { fill: #e6f2ff; stroke: #0066cc; stroke-width: 2; }
    .arrow { stroke: #333; stroke-width: 2; marker-end: url(#arrowhead); }
    .label { font-family: Arial; font-size: 14px; fill: #333; text-anchor: middle; }
    .title { font-family: Arial; font-size: 18px; font-weight: bold; fill: #333; text-anchor: middle; }
    .database { fill: #ffe6cc; stroke: #ff9900; stroke-width: 2; }
    .messaging { fill: #e6ffcc; stroke: #66cc00; stroke-width: 2; }
    .processing { fill: #ffcccc; stroke: #cc0000; stroke-width: 2; }
    .storage { fill: #e6ccff; stroke: #6600cc; stroke-width: 2; }
  </style>
  
  <!-- Arrow marker -->
  <defs>
    <marker id="arrowhead" markerWidth="10" markerHeight="7" refX="9" refY="3.5" orient="auto">
      <polygon points="0 0, 10 3.5, 0 7" fill="#333" />
    </marker>
  </defs>
  
  <!-- Title -->
  <text x="400" y="30" class="title">实时数据湖仓库架构</text>
  
  <!-- Components -->
  <!-- PostgreSQL -->
  <rect x="50" y="100" width="120" height="60" rx="10" ry="10" class="database" />
  <text x="110" y="140" class="label">PostgreSQL</text>
  
  <!-- Flink CDC -->
  <rect x="220" y="100" width="120" height="60" rx="10" ry="10" class="component" />
  <text x="280" y="140" class="label">Flink CDC</text>
  
  <!-- Kafka -->
  <rect x="390" y="100" width="120" height="60" rx="10" ry="10" class="messaging" />
  <text x="450" y="140" class="label">Kafka</text>
  
  <!-- Flink Processing -->
  <rect x="390" y="220" width="120" height="60" rx="10" ry="10" class="processing" />
  <text x="450" y="260" class="label">Flink Processing</text>
  
  <!-- Iceberg -->
  <rect x="560" y="220" width="120" height="60" rx="10" ry="10" class="storage" />
  <text x="620" y="260" class="label">Apache Iceberg</text>
  
  <!-- Analytics -->
  <rect x="560" y="100" width="120" height="60" rx="10" ry="10" class="component" />
  <text x="620" y="140" class="label">数据分析</text>
  
  <!-- Flow arrows -->
  <line x1="170" y1="130" x2="220" y2="130" class="arrow" />
  <line x1="340" y1="130" x2="390" y2="130" class="arrow" />
  <line x1="450" y1="160" x2="450" y2="220" class="arrow" />
  <line x1="510" y1="250" x2="560" y2="250" class="arrow" />
  <line x1="620" y1="220" x2="620" y2="160" class="arrow" />
  
  <!-- Labels -->
  <text x="195" y="115" class="label" style="font-size: 12px;">数据变更</text>
  <text x="365" y="115" class="label" style="font-size: 12px;">CDC事件</text>
  <text x="465" y="190" class="label" style="font-size: 12px;">消息消费</text>
  <text x="535" y="235" class="label" style="font-size: 12px;">写入</text>
  <text x="635" y="190" class="label" style="font-size: 12px;">查询</text>
</svg> 